<?xml version="1.0" encoding="UTF-8"?>
<svg width="495" height="226" viewBox="0 0 495 226" xmlns="http://www.w3.org/2000/svg" role="img" aria-label="Top Languages">
  <defs>
    <filter id="shadow" x="-20%" y="-20%" width="140%" height="140%">
      <feDropShadow dx="0" dy="10" stdDeviation="12" flood-color="rgba(0,0,0,0.20)"/>
    </filter>

    

    <clipPath id="stackClip">
      <rect x="16" y="48" width="463" height="14" rx="6" />
    </clipPath>
  </defs>

  <rect x="0.5" y="0.5" width="494" height="225" rx="8" fill="#fdf6e3" stroke="rgba(88,110,117,0.25)" filter="url(#shadow)"/>

  
  <g transform="translate(16,16)">
    <circle cx="8" cy="8" r="8" fill="rgba(245,183,0,0.18)"/>
    <text x="8" y="11" text-anchor="middle" font-size="10" fill="#b58900" font-family="Segoe UI, Ubuntu, Arial">⌁</text>
    <text x="24" y="12" font-size="16" font-weight="800" fill="#268bd2" font-family="Segoe UI, Ubuntu, Arial">Top Languages</text>
    <text x="463" y="12" text-anchor="end" font-size="11" fill="rgba(88,110,117,0.75)" font-family="Segoe UI, Ubuntu, Arial">TranDangKhoaTechnology • 29 repos</text>
  </g>

  
      <g>
        <rect x="16" y="48" width="463" height="14" rx="6" fill="rgba(0,0,0,0.08)" />
        <g clip-path="url(#stackClip)">
          <rect x="16" y="48" width="347" height="14" fill="#555555" /><rect x="363" y="48" width="71" height="14" fill="#3572A5" /><rect x="434" y="48" width="10" height="14" fill="#4F5D95" /><rect x="444" y="48" width="9" height="14" fill="hsl(182 72% 52%)" /><rect x="453" y="48" width="8" height="14" fill="hsl(314 72% 52%)" /><rect x="461" y="48" width="8" height="14" fill="#e34c26" /><rect x="469" y="48" width="6" height="14" fill="hsl(24 72% 52%)" /><rect x="475" y="48" width="4" height="14" fill="#f1e05a" />
        </g>
      </g>
    

  
        <g transform="translate(16,76)">
          <circle cx="6" cy="10" r="5" fill="#555555" />
          <text x="16" y="13" font-size="12" font-weight="700" fill="#586e75" font-family="Segoe UI, Ubuntu, Arial">C</text>
          <text x="223" y="13" text-anchor="end" font-size="11" fill="rgba(88,110,117,0.75)" font-family="Segoe UI, Ubuntu, Arial">74.8%</text>
          <rect x="0" y="20" width="221" height="6" rx="3" fill="rgba(0,0,0,0.08)" />
          <rect x="0" y="20" width="165.39441908173538" height="6" rx="3" fill="#555555" />
        </g>
      
        <g transform="translate(253,76)">
          <circle cx="6" cy="10" r="5" fill="#3572A5" />
          <text x="16" y="13" font-size="12" font-weight="700" fill="#586e75" font-family="Segoe UI, Ubuntu, Arial">Python</text>
          <text x="223" y="13" text-anchor="end" font-size="11" fill="rgba(88,110,117,0.75)" font-family="Segoe UI, Ubuntu, Arial">15.2%</text>
          <rect x="0" y="20" width="221" height="6" rx="3" fill="rgba(0,0,0,0.08)" />
          <rect x="0" y="20" width="33.50546993904724" height="6" rx="3" fill="#3572A5" />
        </g>
      
        <g transform="translate(16,110)">
          <circle cx="6" cy="10" r="5" fill="#4F5D95" />
          <text x="16" y="13" font-size="12" font-weight="700" fill="#586e75" font-family="Segoe UI, Ubuntu, Arial">PHP</text>
          <text x="223" y="13" text-anchor="end" font-size="11" fill="rgba(88,110,117,0.75)" font-family="Segoe UI, Ubuntu, Arial">2.0%</text>
          <rect x="0" y="20" width="221" height="6" rx="3" fill="rgba(0,0,0,0.08)" />
          <rect x="0" y="20" width="4.402511559222865" height="6" rx="3" fill="#4F5D95" />
        </g>
      
        <g transform="translate(253,110)">
          <circle cx="6" cy="10" r="5" fill="hsl(182 72% 52%)" />
          <text x="16" y="13" font-size="12" font-weight="700" fill="#586e75" font-family="Segoe UI, Ubuntu, Arial">Assembly</text>
          <text x="223" y="13" text-anchor="end" font-size="11" fill="rgba(88,110,117,0.75)" font-family="Segoe UI, Ubuntu, Arial">1.9%</text>
          <rect x="0" y="20" width="221" height="6" rx="3" fill="rgba(0,0,0,0.08)" />
          <rect x="0" y="20" width="4.23562275434063" height="6" rx="3" fill="hsl(182 72% 52%)" />
        </g>
      
        <g transform="translate(16,144)">
          <circle cx="6" cy="10" r="5" fill="hsl(314 72% 52%)" />
          <text x="16" y="13" font-size="12" font-weight="700" fill="#586e75" font-family="Segoe UI, Ubuntu, Arial">Makefile</text>
          <text x="223" y="13" text-anchor="end" font-size="11" fill="rgba(88,110,117,0.75)" font-family="Segoe UI, Ubuntu, Arial">1.7%</text>
          <rect x="0" y="20" width="221" height="6" rx="3" fill="rgba(0,0,0,0.08)" />
          <rect x="0" y="20" width="3.6465037079240123" height="6" rx="3" fill="hsl(314 72% 52%)" />
        </g>
      
        <g transform="translate(253,144)">
          <circle cx="6" cy="10" r="5" fill="#e34c26" />
          <text x="16" y="13" font-size="12" font-weight="700" fill="#586e75" font-family="Segoe UI, Ubuntu, Arial">HTML</text>
          <text x="223" y="13" text-anchor="end" font-size="11" fill="rgba(88,110,117,0.75)" font-family="Segoe UI, Ubuntu, Arial">1.6%</text>
          <rect x="0" y="20" width="221" height="6" rx="3" fill="rgba(0,0,0,0.08)" />
          <rect x="0" y="20" width="3.481216204959672" height="6" rx="3" fill="#e34c26" />
        </g>
      
        <g transform="translate(16,178)">
          <circle cx="6" cy="10" r="5" fill="hsl(24 72% 52%)" />
          <text x="16" y="13" font-size="12" font-weight="700" fill="#586e75" font-family="Segoe UI, Ubuntu, Arial">QML</text>
          <text x="223" y="13" text-anchor="end" font-size="11" fill="rgba(88,110,117,0.75)" font-family="Segoe UI, Ubuntu, Arial">1.1%</text>
          <rect x="0" y="20" width="221" height="6" rx="3" fill="rgba(0,0,0,0.08)" />
          <rect x="0" y="20" width="2.4222117186666217" height="6" rx="3" fill="hsl(24 72% 52%)" />
        </g>
      
        <g transform="translate(253,178)">
          <circle cx="6" cy="10" r="5" fill="#f1e05a" />
          <text x="16" y="13" font-size="12" font-weight="700" fill="#586e75" font-family="Segoe UI, Ubuntu, Arial">JavaScript</text>
          <text x="223" y="13" text-anchor="end" font-size="11" fill="rgba(88,110,117,0.75)" font-family="Segoe UI, Ubuntu, Arial">0.8%</text>
          <rect x="0" y="20" width="221" height="6" rx="3" fill="rgba(0,0,0,0.08)" />
          <rect x="0" y="20" width="1.7276468347224667" height="6" rx="3" fill="#f1e05a" />
        </g>
      

  <text x="16" y="216" font-size="10" fill="rgba(88,110,117,0.75)" font-family="Segoe UI, Ubuntu, Arial">theme=solarized-light • hide=css • langs=8 • updated=2026-04-21T07:24Z</text>
</svg>