<?xml version="1.0" encoding="UTF-8"?>
<svg width="495" height="226" viewBox="0 0 495 226" xmlns="http://www.w3.org/2000/svg" role="img" aria-label="Top Languages">
  <defs>
    <filter id="shadow" x="-20%" y="-20%" width="140%" height="140%">
      <feDropShadow dx="0" dy="10" stdDeviation="12" flood-color="rgba(0,0,0,0.20)"/>
    </filter>

    

    <clipPath id="stackClip">
      <rect x="16" y="48" width="463" height="14" rx="6" />
    </clipPath>
  </defs>

  <rect x="0.5" y="0.5" width="494" height="225" rx="8" fill="#fdf6e3" stroke="rgba(88,110,117,0.25)" filter="url(#shadow)"/>

  
  <g transform="translate(16,16)">
    <circle cx="8" cy="8" r="8" fill="rgba(245,183,0,0.18)"/>
    <text x="8" y="11" text-anchor="middle" font-size="10" fill="#b58900" font-family="Segoe UI, Ubuntu, Arial">⌁</text>
    <text x="24" y="12" font-size="16" font-weight="800" fill="#268bd2" font-family="Segoe UI, Ubuntu, Arial">Top Languages</text>
    <text x="463" y="12" text-anchor="end" font-size="11" fill="rgba(88,110,117,0.75)" font-family="Segoe UI, Ubuntu, Arial">TranDangKhoaTechnology • 33 repos</text>
  </g>

  
      <g>
        <rect x="16" y="48" width="463" height="14" rx="6" fill="rgba(0,0,0,0.08)" />
        <g clip-path="url(#stackClip)">
          <rect x="16" y="48" width="217" height="14" fill="#555555" /><rect x="233" y="48" width="159" height="14" fill="#3572A5" /><rect x="392" y="48" width="28" height="14" fill="#f1e05a" /><rect x="420" y="48" width="22" height="14" fill="#4F5D95" /><rect x="442" y="48" width="18" height="14" fill="#e34c26" /><rect x="460" y="48" width="12" height="14" fill="hsl(24 72% 52%)" /><rect x="472" y="48" width="4" height="14" fill="hsl(182 72% 52%)" /><rect x="476" y="48" width="3" height="14" fill="hsl(236 72% 52%)" />
        </g>
      </g>
    

  
        <g transform="translate(16,76)">
          <circle cx="6" cy="10" r="5" fill="#555555" />
          <text x="16" y="13" font-size="12" font-weight="700" fill="#586e75" font-family="Segoe UI, Ubuntu, Arial">C</text>
          <text x="223" y="13" text-anchor="end" font-size="11" fill="rgba(88,110,117,0.75)" font-family="Segoe UI, Ubuntu, Arial">46.7%</text>
          <rect x="0" y="20" width="221" height="6" rx="3" fill="rgba(0,0,0,0.08)" />
          <rect x="0" y="20" width="103.21086583390192" height="6" rx="3" fill="#555555" />
        </g>
      
        <g transform="translate(253,76)">
          <circle cx="6" cy="10" r="5" fill="#3572A5" />
          <text x="16" y="13" font-size="12" font-weight="700" fill="#586e75" font-family="Segoe UI, Ubuntu, Arial">Python</text>
          <text x="223" y="13" text-anchor="end" font-size="11" fill="rgba(88,110,117,0.75)" font-family="Segoe UI, Ubuntu, Arial">34.3%</text>
          <rect x="0" y="20" width="221" height="6" rx="3" fill="rgba(0,0,0,0.08)" />
          <rect x="0" y="20" width="75.77075905672024" height="6" rx="3" fill="#3572A5" />
        </g>
      
        <g transform="translate(16,110)">
          <circle cx="6" cy="10" r="5" fill="#f1e05a" />
          <text x="16" y="13" font-size="12" font-weight="700" fill="#586e75" font-family="Segoe UI, Ubuntu, Arial">JavaScript</text>
          <text x="223" y="13" text-anchor="end" font-size="11" fill="rgba(88,110,117,0.75)" font-family="Segoe UI, Ubuntu, Arial">5.9%</text>
          <rect x="0" y="20" width="221" height="6" rx="3" fill="rgba(0,0,0,0.08)" />
          <rect x="0" y="20" width="13.015796620102703" height="6" rx="3" fill="#f1e05a" />
        </g>
      
        <g transform="translate(253,110)">
          <circle cx="6" cy="10" r="5" fill="#4F5D95" />
          <text x="16" y="13" font-size="12" font-weight="700" fill="#586e75" font-family="Segoe UI, Ubuntu, Arial">PHP</text>
          <text x="223" y="13" text-anchor="end" font-size="11" fill="rgba(88,110,117,0.75)" font-family="Segoe UI, Ubuntu, Arial">4.5%</text>
          <rect x="0" y="20" width="221" height="6" rx="3" fill="rgba(0,0,0,0.08)" />
          <rect x="0" y="20" width="10.034185777164062" height="6" rx="3" fill="#4F5D95" />
        </g>
      
        <g transform="translate(16,144)">
          <circle cx="6" cy="10" r="5" fill="#e34c26" />
          <text x="16" y="13" font-size="12" font-weight="700" fill="#586e75" font-family="Segoe UI, Ubuntu, Arial">HTML</text>
          <text x="223" y="13" text-anchor="end" font-size="11" fill="rgba(88,110,117,0.75)" font-family="Segoe UI, Ubuntu, Arial">3.7%</text>
          <rect x="0" y="20" width="221" height="6" rx="3" fill="rgba(0,0,0,0.08)" />
          <rect x="0" y="20" width="8.144572967056826" height="6" rx="3" fill="#e34c26" />
        </g>
      
        <g transform="translate(253,144)">
          <circle cx="6" cy="10" r="5" fill="hsl(24 72% 52%)" />
          <text x="16" y="13" font-size="12" font-weight="700" fill="#586e75" font-family="Segoe UI, Ubuntu, Arial">QML</text>
          <text x="223" y="13" text-anchor="end" font-size="11" fill="rgba(88,110,117,0.75)" font-family="Segoe UI, Ubuntu, Arial">2.5%</text>
          <rect x="0" y="20" width="221" height="6" rx="3" fill="rgba(0,0,0,0.08)" />
          <rect x="0" y="20" width="5.478764769937761" height="6" rx="3" fill="hsl(24 72% 52%)" />
        </g>
      
        <g transform="translate(16,178)">
          <circle cx="6" cy="10" r="5" fill="hsl(182 72% 52%)" />
          <text x="16" y="13" font-size="12" font-weight="700" fill="#586e75" font-family="Segoe UI, Ubuntu, Arial">Assembly</text>
          <text x="223" y="13" text-anchor="end" font-size="11" fill="rgba(88,110,117,0.75)" font-family="Segoe UI, Ubuntu, Arial">0.8%</text>
          <rect x="0" y="20" width="221" height="6" rx="3" fill="rgba(0,0,0,0.08)" />
          <rect x="0" y="20" width="1.855373183489733" height="6" rx="3" fill="hsl(182 72% 52%)" />
        </g>
      
        <g transform="translate(253,178)">
          <circle cx="6" cy="10" r="5" fill="hsl(236 72% 52%)" />
          <text x="16" y="13" font-size="12" font-weight="700" fill="#586e75" font-family="Segoe UI, Ubuntu, Arial">Pascal</text>
          <text x="223" y="13" text-anchor="end" font-size="11" fill="rgba(88,110,117,0.75)" font-family="Segoe UI, Ubuntu, Arial">0.7%</text>
          <rect x="0" y="20" width="221" height="6" rx="3" fill="rgba(0,0,0,0.08)" />
          <rect x="0" y="20" width="1.5959888688127501" height="6" rx="3" fill="hsl(236 72% 52%)" />
        </g>
      

  <text x="16" y="216" font-size="10" fill="rgba(88,110,117,0.75)" font-family="Segoe UI, Ubuntu, Arial">theme=solarized-light • hide=css • langs=8 • updated=2026-06-12T11:52Z</text>
</svg>