<?xml version="1.0" encoding="UTF-8"?>
<svg width="495" height="198" viewBox="0 0 495 198" xmlns="http://www.w3.org/2000/svg" role="img" aria-label="Top Languages">
  <defs>
    <filter id="shadow" x="-20%" y="-20%" width="140%" height="140%">
      <feDropShadow dx="0" dy="10" stdDeviation="12" flood-color="rgba(0,0,0,0.35)"/>
    </filter>
  </defs>

  <rect x="0.5" y="0.5" width="494" height="197" rx="6" fill="#040f0f" stroke="rgba(12,245,116,0.22)" filter="url(#shadow)"/>

  <g transform="translate(16,16)">
    <circle cx="8" cy="8" r="8" fill="rgba(245,183,0,0.18)"/>
    <text x="8" y="11" text-anchor="middle" font-size="10" fill="#f5b700" font-family="Segoe UI, Ubuntu, Arial">⌁</text>
    <text x="24" y="12" font-size="16" font-weight="800" fill="#2f97c1" font-family="Segoe UI, Ubuntu, Arial">Top Languages</text>
    <text x="463" y="12" text-anchor="end" font-size="11" fill="rgba(12,245,116,0.75)" font-family="Segoe UI, Ubuntu, Arial">TranDangKhoaTechnology • 22 repos</text>
  </g>

  
      <g transform="translate(16,44)">
        <circle cx="6" cy="9" r="5" fill="#3572A5" />
        <text x="16" y="13" font-size="12" font-weight="700" fill="#0cf574" font-family="Segoe UI, Ubuntu, Arial">Python</text>
        <text x="223" y="13" text-anchor="end" font-size="11" fill="rgba(12,245,116,0.75)" font-family="Segoe UI, Ubuntu, Arial">48.4%</text>

        <rect x="0" y="20" width="221" height="6" rx="3" fill="rgba(255,255,255,0.08)" />
        <rect x="0" y="20" width="106.93640679377035" height="6" rx="3" fill="#3572A5" />
      </g>
    
      <g transform="translate(253,44)">
        <circle cx="6" cy="9" r="5" fill="#555555" />
        <text x="16" y="13" font-size="12" font-weight="700" fill="#0cf574" font-family="Segoe UI, Ubuntu, Arial">C</text>
        <text x="223" y="13" text-anchor="end" font-size="11" fill="rgba(12,245,116,0.75)" font-family="Segoe UI, Ubuntu, Arial">33.5%</text>

        <rect x="0" y="20" width="221" height="6" rx="3" fill="rgba(255,255,255,0.08)" />
        <rect x="0" y="20" width="74.09992764083663" height="6" rx="3" fill="#555555" />
      </g>
    
      <g transform="translate(16,78)">
        <circle cx="6" cy="9" r="5" fill="#4F5D95" />
        <text x="16" y="13" font-size="12" font-weight="700" fill="#0cf574" font-family="Segoe UI, Ubuntu, Arial">PHP</text>
        <text x="223" y="13" text-anchor="end" font-size="11" fill="rgba(12,245,116,0.75)" font-family="Segoe UI, Ubuntu, Arial">6.3%</text>

        <rect x="0" y="20" width="221" height="6" rx="3" fill="rgba(255,255,255,0.08)" />
        <rect x="0" y="20" width="13.964390362789592" height="6" rx="3" fill="#4F5D95" />
      </g>
    
      <g transform="translate(253,78)">
        <circle cx="6" cy="9" r="5" fill="#e34c26" />
        <text x="16" y="13" font-size="12" font-weight="700" fill="#0cf574" font-family="Segoe UI, Ubuntu, Arial">HTML</text>
        <text x="223" y="13" text-anchor="end" font-size="11" fill="rgba(12,245,116,0.75)" font-family="Segoe UI, Ubuntu, Arial">3.5%</text>

        <rect x="0" y="20" width="221" height="6" rx="3" fill="rgba(255,255,255,0.08)" />
        <rect x="0" y="20" width="7.814357981875902" height="6" rx="3" fill="#e34c26" />
      </g>
    
      <g transform="translate(16,112)">
        <circle cx="6" cy="9" r="5" fill="hsl(24 72% 52%)" />
        <text x="16" y="13" font-size="12" font-weight="700" fill="#0cf574" font-family="Segoe UI, Ubuntu, Arial">QML</text>
        <text x="223" y="13" text-anchor="end" font-size="11" fill="rgba(12,245,116,0.75)" font-family="Segoe UI, Ubuntu, Arial">3.5%</text>

        <rect x="0" y="20" width="221" height="6" rx="3" fill="rgba(255,255,255,0.08)" />
        <rect x="0" y="20" width="7.789466617236577" height="6" rx="3" fill="hsl(24 72% 52%)" />
      </g>
    
      <g transform="translate(253,112)">
        <circle cx="6" cy="9" r="5" fill="#f1e05a" />
        <text x="16" y="13" font-size="12" font-weight="700" fill="#0cf574" font-family="Segoe UI, Ubuntu, Arial">JavaScript</text>
        <text x="223" y="13" text-anchor="end" font-size="11" fill="rgba(12,245,116,0.75)" font-family="Segoe UI, Ubuntu, Arial">2.1%</text>

        <rect x="0" y="20" width="221" height="6" rx="3" fill="rgba(255,255,255,0.08)" />
        <rect x="0" y="20" width="4.559043950908224" height="6" rx="3" fill="#f1e05a" />
      </g>
    
      <g transform="translate(16,146)">
        <circle cx="6" cy="9" r="5" fill="hsl(236 72% 52%)" />
        <text x="16" y="13" font-size="12" font-weight="700" fill="#0cf574" font-family="Segoe UI, Ubuntu, Arial">Pascal</text>
        <text x="223" y="13" text-anchor="end" font-size="11" fill="rgba(12,245,116,0.75)" font-family="Segoe UI, Ubuntu, Arial">1.0%</text>

        <rect x="0" y="20" width="221" height="6" rx="3" fill="rgba(255,255,255,0.08)" />
        <rect x="0" y="20" width="2.269106730647118" height="6" rx="3" fill="hsl(236 72% 52%)" />
      </g>
    
      <g transform="translate(253,146)">
        <circle cx="6" cy="9" r="5" fill="hsl(182 72% 52%)" />
        <text x="16" y="13" font-size="12" font-weight="700" fill="#0cf574" font-family="Segoe UI, Ubuntu, Arial">Assembly</text>
        <text x="223" y="13" text-anchor="end" font-size="11" fill="rgba(12,245,116,0.75)" font-family="Segoe UI, Ubuntu, Arial">0.6%</text>

        <rect x="0" y="20" width="221" height="6" rx="3" fill="rgba(255,255,255,0.08)" />
        <rect x="0" y="20" width="1.318943966586232" height="6" rx="3" fill="hsl(182 72% 52%)" />
      </g>
    

  <text x="16" y="188" font-size="10" fill="rgba(12,245,116,0.75)" font-family="Segoe UI, Ubuntu, Arial">hide=css • langs_count=8</text>
</svg>