<?xml version="1.0" encoding="UTF-8"?>
<svg width="495" height="226" viewBox="0 0 495 226" xmlns="http://www.w3.org/2000/svg" role="img" aria-label="Top Languages">
  <defs>
    <filter id="shadow" x="-20%" y="-20%" width="140%" height="140%">
      <feDropShadow dx="0" dy="10" stdDeviation="12" flood-color="rgba(0,0,0,0.20)"/>
    </filter>

    

    <clipPath id="stackClip">
      <rect x="16" y="48" width="463" height="14" rx="6" />
    </clipPath>
  </defs>

  <rect x="0.5" y="0.5" width="494" height="225" rx="8" fill="#fdf6e3" stroke="rgba(88,110,117,0.25)" filter="url(#shadow)"/>

  
  <g transform="translate(16,16)">
    <circle cx="8" cy="8" r="8" fill="rgba(245,183,0,0.18)"/>
    <text x="8" y="11" text-anchor="middle" font-size="10" fill="#b58900" font-family="Segoe UI, Ubuntu, Arial">⌁</text>
    <text x="24" y="12" font-size="16" font-weight="800" fill="#268bd2" font-family="Segoe UI, Ubuntu, Arial">Top Languages</text>
    <text x="463" y="12" text-anchor="end" font-size="11" fill="rgba(88,110,117,0.75)" font-family="Segoe UI, Ubuntu, Arial">TranDangKhoaTechnology • 32 repos</text>
  </g>

  
      <g>
        <rect x="16" y="48" width="463" height="14" rx="6" fill="rgba(0,0,0,0.08)" />
        <g clip-path="url(#stackClip)">
          <rect x="16" y="48" width="227" height="14" fill="#555555" /><rect x="243" y="48" width="166" height="14" fill="#3572A5" /><rect x="409" y="48" width="23" height="14" fill="#4F5D95" /><rect x="432" y="48" width="16" height="14" fill="#e34c26" /><rect x="448" y="48" width="13" height="14" fill="hsl(24 72% 52%)" /><rect x="461" y="48" width="10" height="14" fill="#f1e05a" /><rect x="471" y="48" width="5" height="14" fill="hsl(182 72% 52%)" /><rect x="476" y="48" width="3" height="14" fill="hsl(236 72% 52%)" />
        </g>
      </g>
    

  
        <g transform="translate(16,76)">
          <circle cx="6" cy="10" r="5" fill="#555555" />
          <text x="16" y="13" font-size="12" font-weight="700" fill="#586e75" font-family="Segoe UI, Ubuntu, Arial">C</text>
          <text x="223" y="13" text-anchor="end" font-size="11" fill="rgba(88,110,117,0.75)" font-family="Segoe UI, Ubuntu, Arial">49.0%</text>
          <rect x="0" y="20" width="221" height="6" rx="3" fill="rgba(0,0,0,0.08)" />
          <rect x="0" y="20" width="108.2193333565041" height="6" rx="3" fill="#555555" />
        </g>
      
        <g transform="translate(253,76)">
          <circle cx="6" cy="10" r="5" fill="#3572A5" />
          <text x="16" y="13" font-size="12" font-weight="700" fill="#586e75" font-family="Segoe UI, Ubuntu, Arial">Python</text>
          <text x="223" y="13" text-anchor="end" font-size="11" fill="rgba(88,110,117,0.75)" font-family="Segoe UI, Ubuntu, Arial">35.8%</text>
          <rect x="0" y="20" width="221" height="6" rx="3" fill="rgba(0,0,0,0.08)" />
          <rect x="0" y="20" width="79.01361730178887" height="6" rx="3" fill="#3572A5" />
        </g>
      
        <g transform="translate(16,110)">
          <circle cx="6" cy="10" r="5" fill="#4F5D95" />
          <text x="16" y="13" font-size="12" font-weight="700" fill="#586e75" font-family="Segoe UI, Ubuntu, Arial">PHP</text>
          <text x="223" y="13" text-anchor="end" font-size="11" fill="rgba(88,110,117,0.75)" font-family="Segoe UI, Ubuntu, Arial">4.8%</text>
          <rect x="0" y="20" width="221" height="6" rx="3" fill="rgba(0,0,0,0.08)" />
          <rect x="0" y="20" width="10.521110222324323" height="6" rx="3" fill="#4F5D95" />
        </g>
      
        <g transform="translate(253,110)">
          <circle cx="6" cy="10" r="5" fill="#e34c26" />
          <text x="16" y="13" font-size="12" font-weight="700" fill="#586e75" font-family="Segoe UI, Ubuntu, Arial">HTML</text>
          <text x="223" y="13" text-anchor="end" font-size="11" fill="rgba(88,110,117,0.75)" font-family="Segoe UI, Ubuntu, Arial">3.3%</text>
          <rect x="0" y="20" width="221" height="6" rx="3" fill="rgba(0,0,0,0.08)" />
          <rect x="0" y="20" width="7.265884364890922" height="6" rx="3" fill="#e34c26" />
        </g>
      
        <g transform="translate(16,144)">
          <circle cx="6" cy="10" r="5" fill="hsl(24 72% 52%)" />
          <text x="16" y="13" font-size="12" font-weight="700" fill="#586e75" font-family="Segoe UI, Ubuntu, Arial">QML</text>
          <text x="223" y="13" text-anchor="end" font-size="11" fill="rgba(88,110,117,0.75)" font-family="Segoe UI, Ubuntu, Arial">2.6%</text>
          <rect x="0" y="20" width="221" height="6" rx="3" fill="rgba(0,0,0,0.08)" />
          <rect x="0" y="20" width="5.744630337409794" height="6" rx="3" fill="hsl(24 72% 52%)" />
        </g>
      
        <g transform="translate(253,144)">
          <circle cx="6" cy="10" r="5" fill="#f1e05a" />
          <text x="16" y="13" font-size="12" font-weight="700" fill="#586e75" font-family="Segoe UI, Ubuntu, Arial">JavaScript</text>
          <text x="223" y="13" text-anchor="end" font-size="11" fill="rgba(88,110,117,0.75)" font-family="Segoe UI, Ubuntu, Arial">2.1%</text>
          <rect x="0" y="20" width="221" height="6" rx="3" fill="rgba(0,0,0,0.08)" />
          <rect x="0" y="20" width="4.631459296744977" height="6" rx="3" fill="#f1e05a" />
        </g>
      
        <g transform="translate(16,178)">
          <circle cx="6" cy="10" r="5" fill="hsl(182 72% 52%)" />
          <text x="16" y="13" font-size="12" font-weight="700" fill="#586e75" font-family="Segoe UI, Ubuntu, Arial">Assembly</text>
          <text x="223" y="13" text-anchor="end" font-size="11" fill="rgba(88,110,117,0.75)" font-family="Segoe UI, Ubuntu, Arial">0.9%</text>
          <rect x="0" y="20" width="221" height="6" rx="3" fill="rgba(0,0,0,0.08)" />
          <rect x="0" y="20" width="1.9454080481014684" height="6" rx="3" fill="hsl(182 72% 52%)" />
        </g>
      
        <g transform="translate(253,178)">
          <circle cx="6" cy="10" r="5" fill="hsl(236 72% 52%)" />
          <text x="16" y="13" font-size="12" font-weight="700" fill="#586e75" font-family="Segoe UI, Ubuntu, Arial">Pascal</text>
          <text x="223" y="13" text-anchor="end" font-size="11" fill="rgba(88,110,117,0.75)" font-family="Segoe UI, Ubuntu, Arial">0.8%</text>
          <rect x="0" y="20" width="221" height="6" rx="3" fill="rgba(0,0,0,0.08)" />
          <rect x="0" y="20" width="1.673436706802475" height="6" rx="3" fill="hsl(236 72% 52%)" />
        </g>
      

  <text x="16" y="216" font-size="10" fill="rgba(88,110,117,0.75)" font-family="Segoe UI, Ubuntu, Arial">theme=solarized-light • hide=css • langs=8 • updated=2026-06-06T23:52Z</text>
</svg>